<svg width="26" height="27" viewBox="0 0 26 27" fill="none" xmlns="http://www.w3.org/2000/svg">
<path d="M11.8 15.9C15.4 15.9 21.4 20.7 21.4 20.7V1.5C21.4 1.5 15.4 6.3 11.8 6.3M11.8 15.9V6.3M11.8 15.9H5.8C3.1492 15.9 1 14.8332 1 11.1C1 7.3668 3.1492 6.3 5.8 6.3H11.8M4.6 15.9L8.2 25.5H13L9.4 15.9M21.4 14.7C21.8728 14.7 22.3409 14.6069 22.7777 14.426C23.2144 14.2451 23.6113 13.9799 23.9456 13.6456C24.2799 13.3113 24.5451 12.9144 24.726 12.4777C24.9069 12.0409 25 11.5728 25 11.1C25 10.6272 24.9069 10.1591 24.726 9.72234C24.5451 9.28557 24.2799 8.88871 23.9456 8.55442C23.6113 8.22012 23.2144 7.95495 22.7777 7.77403C22.3409 7.59312 21.8728 7.5 21.4 7.5M11.8 20.7C13 20.7 15.4 19.5 15.4 17.1" stroke="#64748B" stroke-width="1.2"/>
</svg>
