<svg width="24" height="25" viewBox="0 0 24 25" fill="none" xmlns="http://www.w3.org/2000/svg">
<path d="M8 10C7.30964 10 6.75 10.5597 6.75 11.25C6.75 11.9404 7.30964 12.5 8 12.5C8.69036 12.5 9.25 11.9404 9.25 11.25C9.25 10.5597 8.69036 10 8 10Z" fill="#5CAFC7"/>
<path d="M12 10C11.3096 10 10.75 10.5597 10.75 11.25C10.75 11.9404 11.3096 12.5 12 12.5C12.6904 12.5 13.25 11.9404 13.25 11.25C13.25 10.5597 12.6904 10 12 10Z" fill="#5CAFC7"/>
<path d="M14.75 11.25C14.75 10.5597 15.3096 10 16 10C16.6904 10 17.25 10.5597 17.25 11.25C17.25 11.9404 16.6904 12.5 16 12.5C15.3096 12.5 14.75 11.9404 14.75 11.25Z" fill="#5CAFC7"/>
<path fill-rule="evenodd" clip-rule="evenodd" d="M16.1007 5.09283C13.4065 4.86307 10.6983 4.84974 8.00194 5.05296L7.80871 5.06752C5.23741 5.26132 3.25 7.40415 3.25 9.98275V18.5C3.25 18.7639 3.38867 19.0084 3.61515 19.1438C3.84163 19.2792 4.12261 19.2856 4.35504 19.1607L8.26583 17.059C8.44774 16.9612 8.65104 16.91 8.85756 16.91H17.834C18.9661 16.91 19.9362 16.1006 20.1392 14.9869C20.5505 12.7297 20.5829 10.4197 20.2353 8.15179L20.1329 7.48346C19.9464 6.26671 18.951 5.3359 17.7245 5.2313L16.1007 5.09283ZM8.11468 6.54871C10.731 6.35152 13.359 6.36446 15.9733 6.5874L17.597 6.72588C18.1334 6.77162 18.5686 7.17865 18.6502 7.71073L18.7526 8.37906C19.075 10.4823 19.0449 12.6246 18.6635 14.718C18.5904 15.1188 18.2413 15.41 17.834 15.41H8.85756C8.40322 15.41 7.95596 15.5226 7.55575 15.7377L4.75 17.2455V9.98275C4.75 8.18884 6.13262 6.6981 7.92144 6.56328L8.11468 6.54871Z" fill="#5CAFC7"/>
</svg>
